<mxfile host="Electron" modified="2023-09-08T20:00:54.437Z" agent="Mozilla/5.0 (Macintosh; Intel Mac OS X 10_15_7) AppleWebKit/537.36 (KHTML, like Gecko) draw.io/21.6.8 Chrome/114.0.5735.289 Electron/25.5.0 Safari/537.36" etag="MUsPiRA7ZSDeZMigMjnI" version="21.6.8" type="device">
  <diagram name="Page-1" id="42789a77-a242-8287-6e28-9cd8cfd52e62">
    <mxGraphModel dx="1528" dy="999" grid="1" gridSize="10" guides="1" tooltips="1" connect="1" arrows="1" fold="1" page="1" pageScale="1" pageWidth="1169" pageHeight="827" background="none" math="0" shadow="0">
      <root>
        <mxCell id="0" />
        <mxCell id="1" value="Base" style="" parent="0" />
        <mxCell id="a_HjmpshQ5I1XaltWmcj-38" value="&lt;font style=&quot;border-color: var(--border-color); font-family: Verdana; font-size: 16px;&quot;&gt;&lt;b style=&quot;border-color: var(--border-color);&quot;&gt;Player B&lt;br style=&quot;border-color: var(--border-color);&quot;&gt;&lt;/b&gt;&lt;/font&gt;IP 83.6.129.14" style="rounded=1;whiteSpace=wrap;html=1;glass=0;sketch=1;curveFitting=1;jiggle=2;verticalAlign=bottom;spacingTop=10;spacingBottom=10;" parent="1" vertex="1">
          <mxGeometry x="720" y="420" width="390" height="270" as="geometry" />
        </mxCell>
        <mxCell id="a_HjmpshQ5I1XaltWmcj-5" value="&lt;font style=&quot;border-color: var(--border-color); font-family: Verdana; font-size: 16px;&quot;&gt;&lt;b style=&quot;border-color: var(--border-color);&quot;&gt;Player A&lt;br style=&quot;border-color: var(--border-color);&quot;&gt;&lt;/b&gt;&lt;/font&gt;IP 47.31.0.215" style="rounded=1;whiteSpace=wrap;html=1;glass=0;sketch=1;curveFitting=1;jiggle=2;verticalAlign=bottom;spacingTop=10;spacingBottom=10;" parent="1" vertex="1">
          <mxGeometry x="70" y="420" width="390" height="270" as="geometry" />
        </mxCell>
        <mxCell id="a_HjmpshQ5I1XaltWmcj-4" value="FA.exe" style="rounded=1;whiteSpace=wrap;html=1;fontStyle=1;fontSize=14;sketch=1;curveFitting=1;jiggle=2;" parent="1" vertex="1">
          <mxGeometry x="100" y="550" width="120" height="60" as="geometry" />
        </mxCell>
        <mxCell id="a_HjmpshQ5I1XaltWmcj-18" value="" style="ellipse;whiteSpace=wrap;html=1;fillColor=#0050ef;fontColor=#ffffff;strokeColor=#001DBC;" parent="1" vertex="1">
          <mxGeometry x="210" y="583" width="20" height="20" as="geometry" />
        </mxCell>
        <mxCell id="a_HjmpshQ5I1XaltWmcj-37" value="" style="endArrow=none;startArrow=none;html=1;rounded=0;entryX=0;entryY=0.5;entryDx=0;entryDy=0;exitX=1;exitY=0.5;exitDx=0;exitDy=0;startFill=0;endFill=0;dashed=1;" parent="1" source="a_HjmpshQ5I1XaltWmcj-21" target="a_HjmpshQ5I1XaltWmcj-23" edge="1">
          <mxGeometry width="50" height="50" relative="1" as="geometry">
            <mxPoint x="240" y="603" as="sourcePoint" />
            <mxPoint x="340" y="610" as="targetPoint" />
          </mxGeometry>
        </mxCell>
        <mxCell id="a_HjmpshQ5I1XaltWmcj-43" value="FA.exe" style="rounded=1;whiteSpace=wrap;html=1;fontStyle=1;fontSize=14;sketch=1;curveFitting=1;jiggle=2;" parent="1" vertex="1">
          <mxGeometry x="960" y="550" width="120" height="60" as="geometry" />
        </mxCell>
        <mxCell id="a_HjmpshQ5I1XaltWmcj-46" value="" style="ellipse;whiteSpace=wrap;html=1;fillColor=#0050ef;fontColor=#ffffff;strokeColor=#001DBC;" parent="1" vertex="1">
          <mxGeometry x="950" y="583" width="20" height="20" as="geometry" />
        </mxCell>
        <mxCell id="a_HjmpshQ5I1XaltWmcj-61" value="" style="endArrow=none;startArrow=none;html=1;rounded=0;entryX=1;entryY=0.5;entryDx=0;entryDy=0;exitX=0;exitY=0.5;exitDx=0;exitDy=0;startFill=0;endFill=0;dashed=1;" parent="1" source="a_HjmpshQ5I1XaltWmcj-51" target="a_HjmpshQ5I1XaltWmcj-50" edge="1">
          <mxGeometry width="50" height="50" relative="1" as="geometry">
            <mxPoint x="870" y="610" as="sourcePoint" />
            <mxPoint x="960" y="603" as="targetPoint" />
          </mxGeometry>
        </mxCell>
        <mxCell id="o2nPI85ZSGAs_6RoOBJv-18" value="UDP 6123" style="text;html=1;strokeColor=none;fillColor=none;align=center;verticalAlign=middle;whiteSpace=wrap;rounded=0;fontSize=11;fontFamily=Helvetica;fontColor=#0250ef;" parent="1" vertex="1">
          <mxGeometry x="190" y="603" width="60" height="30" as="geometry" />
        </mxCell>
        <mxCell id="o2nPI85ZSGAs_6RoOBJv-19" value="UDP 6456" style="text;html=1;strokeColor=none;fillColor=none;align=center;verticalAlign=middle;whiteSpace=wrap;rounded=0;fontSize=11;fontFamily=Helvetica;fontColor=#0250ef;" parent="1" vertex="1">
          <mxGeometry x="930" y="603" width="60" height="30" as="geometry" />
        </mxCell>
        <mxCell id="o2nPI85ZSGAs_6RoOBJv-22" value="* all ports are just random numbers for better examples" style="text;html=1;strokeColor=none;fillColor=none;align=left;verticalAlign=middle;whiteSpace=wrap;rounded=0;fontSize=11;fontFamily=Helvetica;fontColor=default;" parent="1" vertex="1">
          <mxGeometry x="70" y="740" width="280" height="30" as="geometry" />
        </mxCell>
        <mxCell id="o2nPI85ZSGAs_6RoOBJv-38" value="UDP Socket" style="text;html=1;strokeColor=none;fillColor=none;align=left;verticalAlign=middle;whiteSpace=wrap;rounded=0;fontSize=11;fontFamily=Helvetica;fontColor=#0050EF;" parent="1" vertex="1">
          <mxGeometry x="110" y="772.5" width="70" height="30" as="geometry" />
        </mxCell>
        <mxCell id="o2nPI85ZSGAs_6RoOBJv-41" value="" style="endArrow=none;startArrow=none;html=1;rounded=0;startFill=0;endFill=0;exitX=1;exitY=0.5;exitDx=0;exitDy=0;fillColor=#0050ef;strokeColor=#001DBC;strokeWidth=2;" parent="1" edge="1">
          <mxGeometry width="50" height="50" relative="1" as="geometry">
            <mxPoint x="85" y="787.4799999999999" as="sourcePoint" />
            <mxPoint x="105" y="787.16" as="targetPoint" />
          </mxGeometry>
        </mxCell>
        <mxCell id="o2nPI85ZSGAs_6RoOBJv-37" value="" style="ellipse;whiteSpace=wrap;html=1;fillColor=#0050ef;fontColor=#ffffff;strokeColor=#001DBC;" parent="1" vertex="1">
          <mxGeometry x="70" y="780" width="15" height="15" as="geometry" />
        </mxCell>
        <mxCell id="o2nPI85ZSGAs_6RoOBJv-45" value="ICE Socket (any type)" style="text;html=1;strokeColor=none;fillColor=none;align=left;verticalAlign=middle;whiteSpace=wrap;rounded=0;fontSize=11;fontFamily=Helvetica;fontColor=#60a916;" parent="1" vertex="1">
          <mxGeometry x="349" y="770" width="66" height="30" as="geometry" />
        </mxCell>
        <mxCell id="o2nPI85ZSGAs_6RoOBJv-46" value="" style="endArrow=none;startArrow=none;html=1;rounded=0;startFill=0;endFill=0;exitX=1;exitY=0.5;exitDx=0;exitDy=0;fillColor=#60a917;strokeColor=#2D7600;strokeWidth=2;" parent="1" edge="1">
          <mxGeometry width="50" height="50" relative="1" as="geometry">
            <mxPoint x="325" y="784.9799999999999" as="sourcePoint" />
            <mxPoint x="345" y="784.66" as="targetPoint" />
          </mxGeometry>
        </mxCell>
        <mxCell id="o2nPI85ZSGAs_6RoOBJv-47" value="" style="ellipse;whiteSpace=wrap;html=1;fillColor=#60a917;fontColor=#ffffff;strokeColor=#2D7600;" parent="1" vertex="1">
          <mxGeometry x="310" y="777.5" width="15" height="15" as="geometry" />
        </mxCell>
        <mxCell id="o2nPI85ZSGAs_6RoOBJv-48" value="Game data (binary)" style="text;html=1;strokeColor=none;fillColor=none;align=center;verticalAlign=middle;whiteSpace=wrap;rounded=0;fontSize=11;fontFamily=Helvetica;fontColor=#0050EF;" parent="1" vertex="1">
          <mxGeometry x="460" y="565" width="260" height="30" as="geometry" />
        </mxCell>
        <mxCell id="o2nPI85ZSGAs_6RoOBJv-49" value="TCP 7123" style="text;html=1;strokeColor=none;fillColor=none;align=center;verticalAlign=middle;whiteSpace=wrap;rounded=0;fontSize=11;fontFamily=Helvetica;fontColor=#a20225;" parent="1" vertex="1">
          <mxGeometry x="200" y="537" width="60" height="30" as="geometry" />
        </mxCell>
        <mxCell id="o2nPI85ZSGAs_6RoOBJv-1" value="LAN play" style="locked=1;" parent="0" visible="0" />
        <mxCell id="o2nPI85ZSGAs_6RoOBJv-2" value="" style="endArrow=none;startArrow=none;html=1;rounded=0;startFill=0;endFill=0;exitX=1;exitY=0.5;exitDx=0;exitDy=0;entryX=0;entryY=0.5;entryDx=0;entryDy=0;fillColor=#0050ef;strokeColor=#001DBC;strokeWidth=2;" parent="o2nPI85ZSGAs_6RoOBJv-1" source="a_HjmpshQ5I1XaltWmcj-18" target="a_HjmpshQ5I1XaltWmcj-46" edge="1">
          <mxGeometry width="50" height="50" relative="1" as="geometry">
            <mxPoint x="600" y="400" as="sourcePoint" />
            <mxPoint x="650" y="350" as="targetPoint" />
          </mxGeometry>
        </mxCell>
        <mxCell id="o2nPI85ZSGAs_6RoOBJv-3" value="&lt;h1&gt;Playing in LAN&lt;/h1&gt;&lt;p style=&quot;font-size: 14px;&quot;&gt;&lt;font style=&quot;font-size: 14px;&quot;&gt;Each game communicates with every other game via UDP.&amp;nbsp;&lt;/font&gt;&lt;/p&gt;&lt;p style=&quot;font-size: 14px;&quot;&gt;&lt;font style=&quot;font-size: 14px;&quot;&gt;In LAN the host broadcasts the game and other people can see it.&amp;nbsp;&lt;/font&gt;&lt;/p&gt;&lt;p style=&quot;font-size: 14px;&quot;&gt;&lt;font style=&quot;font-size: 14px;&quot;&gt;(Over internet you&#39;d need to forward the UDP and enter the hosts IP-address to join.)&lt;/font&gt;&lt;/p&gt;" style="text;html=1;strokeColor=none;fillColor=none;spacing=5;spacingTop=-20;whiteSpace=wrap;overflow=hidden;rounded=0;fontSize=11;fontFamily=Helvetica;fontColor=default;" parent="o2nPI85ZSGAs_6RoOBJv-1" vertex="1">
          <mxGeometry x="80" y="50" width="230" height="225" as="geometry" />
        </mxCell>
        <mxCell id="a_HjmpshQ5I1XaltWmcj-63" value="BaseGPGnet" style="locked=1;" parent="0" />
        <mxCell id="a_HjmpshQ5I1XaltWmcj-6" value="GPGnet / FAF" style="rounded=1;whiteSpace=wrap;html=1;glass=0;sketch=1;curveFitting=1;jiggle=2;verticalAlign=top;spacingTop=10;spacingBottom=10;fontStyle=1;fontSize=16;" parent="a_HjmpshQ5I1XaltWmcj-63" vertex="1">
          <mxGeometry x="470" y="60" width="240" height="210" as="geometry" />
        </mxCell>
        <mxCell id="a_HjmpshQ5I1XaltWmcj-2" value="FAF client" style="rounded=1;whiteSpace=wrap;html=1;fontStyle=1;fontSize=14;sketch=1;curveFitting=1;jiggle=2;" parent="a_HjmpshQ5I1XaltWmcj-63" vertex="1">
          <mxGeometry x="280" y="450" width="120" height="60" as="geometry" />
        </mxCell>
        <mxCell id="a_HjmpshQ5I1XaltWmcj-34" value="" style="endArrow=none;startArrow=none;html=1;rounded=0;exitX=0.5;exitY=0;exitDx=0;exitDy=0;entryX=0;entryY=0.5;entryDx=0;entryDy=0;startFill=0;endFill=0;fillColor=#a20025;strokeColor=#6F0000;strokeWidth=2;" parent="a_HjmpshQ5I1XaltWmcj-63" source="a_HjmpshQ5I1XaltWmcj-2" target="a_HjmpshQ5I1XaltWmcj-27" edge="1">
          <mxGeometry width="50" height="50" relative="1" as="geometry">
            <mxPoint x="420" y="560" as="sourcePoint" />
            <mxPoint x="539" y="240" as="targetPoint" />
            <Array as="points">
              <mxPoint x="340" y="150" />
            </Array>
          </mxGeometry>
        </mxCell>
        <mxCell id="a_HjmpshQ5I1XaltWmcj-27" value="Lobby server" style="rounded=1;whiteSpace=wrap;html=1;fontStyle=1;fontSize=14;sketch=1;curveFitting=1;jiggle=2;" parent="a_HjmpshQ5I1XaltWmcj-63" vertex="1">
          <mxGeometry x="530" y="120" width="120" height="60" as="geometry" />
        </mxCell>
        <mxCell id="a_HjmpshQ5I1XaltWmcj-53" value="" style="endArrow=none;startArrow=none;html=1;rounded=0;exitX=0.5;exitY=0;exitDx=0;exitDy=0;entryX=1;entryY=0.5;entryDx=0;entryDy=0;startFill=0;endFill=0;fillColor=#a20025;strokeColor=#6F0000;strokeWidth=2;" parent="a_HjmpshQ5I1XaltWmcj-63" source="a_HjmpshQ5I1XaltWmcj-41" target="a_HjmpshQ5I1XaltWmcj-27" edge="1">
          <mxGeometry width="50" height="50" relative="1" as="geometry">
            <mxPoint x="350" y="460" as="sourcePoint" />
            <mxPoint x="540" y="160" as="targetPoint" />
            <Array as="points">
              <mxPoint x="850" y="150" />
            </Array>
          </mxGeometry>
        </mxCell>
        <mxCell id="a_HjmpshQ5I1XaltWmcj-17" value="" style="ellipse;whiteSpace=wrap;html=1;fillColor=#a20025;strokeColor=#6F0000;fontColor=#ffffff;" parent="a_HjmpshQ5I1XaltWmcj-63" vertex="1">
          <mxGeometry x="210" y="557" width="20" height="20" as="geometry" />
        </mxCell>
        <mxCell id="a_HjmpshQ5I1XaltWmcj-44" value="" style="ellipse;whiteSpace=wrap;html=1;fillColor=#a20025;strokeColor=#6F0000;fontColor=#ffffff;" parent="a_HjmpshQ5I1XaltWmcj-63" vertex="1">
          <mxGeometry x="950" y="557" width="20" height="20" as="geometry" />
        </mxCell>
        <mxCell id="a_HjmpshQ5I1XaltWmcj-41" value="FAF client" style="rounded=1;whiteSpace=wrap;html=1;fontStyle=1;fontSize=14;sketch=1;curveFitting=1;jiggle=2;" parent="a_HjmpshQ5I1XaltWmcj-63" vertex="1">
          <mxGeometry x="790" y="450" width="120" height="60" as="geometry" />
        </mxCell>
        <mxCell id="o2nPI85ZSGAs_6RoOBJv-20" value="Control Plane" style="text;html=1;strokeColor=none;fillColor=none;align=center;verticalAlign=middle;whiteSpace=wrap;rounded=0;fontSize=11;fontFamily=Helvetica;fontColor=#a20225;" parent="a_HjmpshQ5I1XaltWmcj-63" vertex="1">
          <mxGeometry x="740" y="124" width="70" height="30" as="geometry" />
        </mxCell>
        <mxCell id="o2nPI85ZSGAs_6RoOBJv-21" value="TCP 7456" style="text;html=1;strokeColor=none;fillColor=none;align=center;verticalAlign=middle;whiteSpace=wrap;rounded=0;fontSize=11;fontFamily=Helvetica;fontColor=#a20225;" parent="a_HjmpshQ5I1XaltWmcj-63" vertex="1">
          <mxGeometry x="930" y="527" width="60" height="30" as="geometry" />
        </mxCell>
        <mxCell id="o2nPI85ZSGAs_6RoOBJv-42" value="TCP Socket" style="text;html=1;strokeColor=none;fillColor=none;align=left;verticalAlign=middle;whiteSpace=wrap;rounded=0;fontSize=11;fontFamily=Helvetica;fontColor=#a20225;" parent="a_HjmpshQ5I1XaltWmcj-63" vertex="1">
          <mxGeometry x="234" y="771" width="66" height="30" as="geometry" />
        </mxCell>
        <mxCell id="o2nPI85ZSGAs_6RoOBJv-43" value="" style="endArrow=none;startArrow=none;html=1;rounded=0;startFill=0;endFill=0;exitX=1;exitY=0.5;exitDx=0;exitDy=0;fillColor=#a20025;strokeColor=#6F0000;strokeWidth=2;" parent="a_HjmpshQ5I1XaltWmcj-63" edge="1">
          <mxGeometry width="50" height="50" relative="1" as="geometry">
            <mxPoint x="210" y="785.9799999999999" as="sourcePoint" />
            <mxPoint x="230" y="785.66" as="targetPoint" />
          </mxGeometry>
        </mxCell>
        <mxCell id="o2nPI85ZSGAs_6RoOBJv-44" value="" style="ellipse;whiteSpace=wrap;html=1;fillColor=#a20025;fontColor=#ffffff;strokeColor=#6F0000;" parent="a_HjmpshQ5I1XaltWmcj-63" vertex="1">
          <mxGeometry x="195" y="778.5" width="15" height="15" as="geometry" />
        </mxCell>
        <mxCell id="o2nPI85ZSGAs_6RoOBJv-53" value="Control Plane" style="text;html=1;strokeColor=none;fillColor=none;align=center;verticalAlign=middle;whiteSpace=wrap;rounded=0;fontSize=11;fontFamily=Helvetica;fontColor=#a20225;" parent="a_HjmpshQ5I1XaltWmcj-63" vertex="1">
          <mxGeometry x="369" y="124" width="70" height="30" as="geometry" />
        </mxCell>
        <mxCell id="o2nPI85ZSGAs_6RoOBJv-4" value="GPGnet Play" style="locked=1;" parent="0" visible="0" />
        <mxCell id="o2nPI85ZSGAs_6RoOBJv-5" value="&lt;h1&gt;GPGnet if there weren&#39;t firewalls&lt;/h1&gt;&lt;p style=&quot;font-size: 14px;&quot;&gt;The FAF clients exchange their opened games with the lobby server.&amp;nbsp;&lt;/p&gt;&lt;p style=&quot;font-size: 14px;&quot;&gt;The lobby server than hands out information, where to join and - for matchmaker games - who has to open a game as host.&lt;/p&gt;" style="text;html=1;strokeColor=none;fillColor=none;spacing=5;spacingTop=-20;whiteSpace=wrap;overflow=hidden;rounded=0;fontSize=11;fontFamily=Helvetica;fontColor=default;" parent="o2nPI85ZSGAs_6RoOBJv-4" vertex="1">
          <mxGeometry x="80" y="50" width="230" height="225" as="geometry" />
        </mxCell>
        <mxCell id="o2nPI85ZSGAs_6RoOBJv-7" value="" style="endArrow=none;startArrow=none;html=1;rounded=0;startFill=0;endFill=0;exitX=1;exitY=0.5;exitDx=0;exitDy=0;entryX=0;entryY=0.5;entryDx=0;entryDy=0;fillColor=#0050ef;strokeColor=#001DBC;strokeWidth=2;" parent="o2nPI85ZSGAs_6RoOBJv-4" source="a_HjmpshQ5I1XaltWmcj-18" target="a_HjmpshQ5I1XaltWmcj-46" edge="1">
          <mxGeometry width="50" height="50" relative="1" as="geometry">
            <mxPoint x="250" y="613" as="sourcePoint" />
            <mxPoint x="970" y="613" as="targetPoint" />
          </mxGeometry>
        </mxCell>
        <mxCell id="o2nPI85ZSGAs_6RoOBJv-10" value="" style="endArrow=none;html=1;rounded=0;labelBackgroundColor=default;strokeColor=#6F0000;fontFamily=Helvetica;fontSize=11;fontColor=default;shape=connector;entryX=0.5;entryY=1;entryDx=0;entryDy=0;exitX=1;exitY=0;exitDx=0;exitDy=0;fillColor=#a20025;strokeWidth=2;" parent="o2nPI85ZSGAs_6RoOBJv-4" source="a_HjmpshQ5I1XaltWmcj-17" target="a_HjmpshQ5I1XaltWmcj-2" edge="1">
          <mxGeometry width="50" height="50" relative="1" as="geometry">
            <mxPoint x="580" y="410" as="sourcePoint" />
            <mxPoint x="630" y="360" as="targetPoint" />
          </mxGeometry>
        </mxCell>
        <mxCell id="o2nPI85ZSGAs_6RoOBJv-11" value="" style="endArrow=none;html=1;rounded=0;labelBackgroundColor=default;strokeColor=#6F0000;fontFamily=Helvetica;fontSize=11;fontColor=default;shape=connector;exitX=0;exitY=0;exitDx=0;exitDy=0;fillColor=#a20025;strokeWidth=2;entryX=0.5;entryY=1;entryDx=0;entryDy=0;" parent="o2nPI85ZSGAs_6RoOBJv-4" source="a_HjmpshQ5I1XaltWmcj-44" target="a_HjmpshQ5I1XaltWmcj-41" edge="1">
          <mxGeometry width="50" height="50" relative="1" as="geometry">
            <mxPoint x="237" y="570" as="sourcePoint" />
            <mxPoint x="350" y="520" as="targetPoint" />
          </mxGeometry>
        </mxCell>
        <mxCell id="o2nPI85ZSGAs_6RoOBJv-13" value="(1) HostGame" style="shape=document;whiteSpace=wrap;html=1;boundedLbl=1;fontFamily=Helvetica;fontSize=14;fontColor=default;sketch=1;curveFitting=1;jiggle=2;" parent="o2nPI85ZSGAs_6RoOBJv-4" vertex="1">
          <mxGeometry x="290" y="270" width="120" height="80" as="geometry" />
        </mxCell>
        <mxCell id="o2nPI85ZSGAs_6RoOBJv-14" value="(2) JoinGame @&lt;br&gt;&amp;nbsp;&amp;nbsp;" style="shape=document;whiteSpace=wrap;html=1;boundedLbl=1;fontFamily=Helvetica;fontSize=14;fontColor=default;sketch=1;curveFitting=1;jiggle=2;" parent="o2nPI85ZSGAs_6RoOBJv-4" vertex="1">
          <mxGeometry x="790" y="270" width="120" height="80" as="geometry" />
        </mxCell>
        <mxCell id="o2nPI85ZSGAs_6RoOBJv-61" value="47.31.0.215:6123" style="text;html=1;align=center;verticalAlign=middle;whiteSpace=wrap;rounded=0;fontSize=14;fontFamily=Helvetica;fillColor=#FFFFFF;fontColor=#0250ef;strokeColor=none;spacing=0;" parent="o2nPI85ZSGAs_6RoOBJv-4" vertex="1">
          <mxGeometry x="799" y="300" width="102" height="20" as="geometry" />
        </mxCell>
        <mxCell id="o2nPI85ZSGAs_6RoOBJv-63" value="The &lt;b&gt;remote&lt;/b&gt;&lt;br&gt;UDP port!" style="text;html=1;strokeColor=none;fillColor=none;align=center;verticalAlign=middle;whiteSpace=wrap;rounded=0;fontSize=11;fontFamily=Helvetica;fontColor=default;fontStyle=2" parent="o2nPI85ZSGAs_6RoOBJv-4" vertex="1">
          <mxGeometry x="910" y="295" width="70" height="30" as="geometry" />
        </mxCell>
        <mxCell id="a_HjmpshQ5I1XaltWmcj-64" value="Firewall" style="locked=1;" parent="0" />
        <mxCell id="a_HjmpshQ5I1XaltWmcj-39" value="F I R E W A L L" style="rounded=0;whiteSpace=wrap;html=1;sketch=1;curveFitting=1;jiggle=2;rotation=-90;spacingLeft=30;" parent="a_HjmpshQ5I1XaltWmcj-64" vertex="1">
          <mxGeometry x="630" y="540" width="180" height="20" as="geometry" />
        </mxCell>
        <mxCell id="a_HjmpshQ5I1XaltWmcj-22" value="F I R E W A L L" style="rounded=0;whiteSpace=wrap;html=1;sketch=1;curveFitting=1;jiggle=2;rotation=-90;spacingLeft=30;" parent="a_HjmpshQ5I1XaltWmcj-64" vertex="1">
          <mxGeometry x="370" y="540" width="180" height="20" as="geometry" />
        </mxCell>
        <mxCell id="o2nPI85ZSGAs_6RoOBJv-25" value="Firewall-Breakage" style="locked=1;" parent="0" visible="0" />
        <mxCell id="o2nPI85ZSGAs_6RoOBJv-26" value="" style="verticalLabelPosition=bottom;verticalAlign=top;html=1;shape=mxgraph.basic.flash;fontFamily=Helvetica;fontSize=11;fillColor=#ffcd28;strokeColor=#d79b00;gradientColor=#ffa500;" parent="o2nPI85ZSGAs_6RoOBJv-25" vertex="1">
          <mxGeometry x="560" y="530" width="80" height="130" as="geometry" />
        </mxCell>
        <mxCell id="o2nPI85ZSGAs_6RoOBJv-27" value="&lt;div style=&quot;text-align: left; font-size: 14px;&quot;&gt;&lt;span style=&quot;background-color: initial; font-size: 14px;&quot;&gt;Firewalls, Routers, ISPs break things, e.g. due to:&lt;/span&gt;&lt;/div&gt;&lt;div style=&quot;text-align: left; font-size: 14px;&quot;&gt;&lt;span style=&quot;background-color: initial; font-size: 14px;&quot;&gt;* IP-address masking&lt;/span&gt;&lt;/div&gt;&lt;div style=&quot;text-align: left; font-size: 14px;&quot;&gt;&lt;span style=&quot;background-color: initial; font-size: 14px;&quot;&gt;* ISP level NAT-ing (multiple users with same IP), killing manual port forwarding&lt;/span&gt;&lt;/div&gt;&lt;div style=&quot;text-align: left; font-size: 14px;&quot;&gt;&lt;span style=&quot;background-color: initial; font-size: 14px;&quot;&gt;* Port forwarding forbidden&lt;/span&gt;&lt;/div&gt;" style="text;html=1;strokeColor=#b85450;fillColor=#f8cecc;align=center;verticalAlign=middle;whiteSpace=wrap;rounded=0;fontSize=14;fontFamily=Helvetica;gradientColor=#ea6b66;spacingTop=2;spacingBottom=2;spacingLeft=6;spacing=2;fontStyle=0" parent="o2nPI85ZSGAs_6RoOBJv-25" vertex="1">
          <mxGeometry x="490" y="380" width="210" height="125" as="geometry" />
        </mxCell>
        <mxCell id="a_HjmpshQ5I1XaltWmcj-65" value="Base ICE" style="" parent="0" />
        <mxCell id="a_HjmpshQ5I1XaltWmcj-42" value="ICE adapter" style="rounded=1;whiteSpace=wrap;html=1;fontStyle=1;fontSize=14;sketch=1;curveFitting=1;jiggle=2;" parent="a_HjmpshQ5I1XaltWmcj-65" vertex="1">
          <mxGeometry x="790" y="550" width="120" height="60" as="geometry" />
        </mxCell>
        <mxCell id="a_HjmpshQ5I1XaltWmcj-3" value="ICE adapter" style="rounded=1;whiteSpace=wrap;html=1;fontStyle=1;fontSize=14;sketch=1;curveFitting=1;jiggle=2;" parent="a_HjmpshQ5I1XaltWmcj-65" vertex="1">
          <mxGeometry x="280" y="550" width="120" height="60" as="geometry" />
        </mxCell>
        <mxCell id="a_HjmpshQ5I1XaltWmcj-28" value="Coturn server(s)" style="rounded=1;whiteSpace=wrap;html=1;fontStyle=1;fontSize=14;sketch=1;curveFitting=1;jiggle=2;" parent="a_HjmpshQ5I1XaltWmcj-65" vertex="1">
          <mxGeometry x="530" y="190" width="120" height="60" as="geometry" />
        </mxCell>
        <mxCell id="a_HjmpshQ5I1XaltWmcj-54" value="" style="endArrow=none;startArrow=none;html=1;rounded=0;exitX=0;exitY=0;exitDx=0;exitDy=0;entryX=0.646;entryY=1.002;entryDx=0;entryDy=0;startFill=0;endFill=0;entryPerimeter=0;fillColor=#60a917;strokeColor=#2D7600;strokeWidth=2;" parent="a_HjmpshQ5I1XaltWmcj-65" source="a_HjmpshQ5I1XaltWmcj-49" target="a_HjmpshQ5I1XaltWmcj-28" edge="1">
          <mxGeometry width="50" height="50" relative="1" as="geometry">
            <mxPoint x="740" y="540" as="sourcePoint" />
            <mxPoint x="860" y="219" as="targetPoint" />
            <Array as="points">
              <mxPoint x="610" y="460" />
            </Array>
          </mxGeometry>
        </mxCell>
        <mxCell id="a_HjmpshQ5I1XaltWmcj-33" value="" style="endArrow=none;startArrow=none;html=1;rounded=0;exitX=1;exitY=0;exitDx=0;exitDy=0;entryX=0.332;entryY=1.031;entryDx=0;entryDy=0;entryPerimeter=0;startFill=0;endFill=0;fillColor=#60a917;strokeColor=#2D7600;strokeWidth=2;" parent="a_HjmpshQ5I1XaltWmcj-65" source="a_HjmpshQ5I1XaltWmcj-26" target="a_HjmpshQ5I1XaltWmcj-28" edge="1">
          <mxGeometry width="50" height="50" relative="1" as="geometry">
            <mxPoint x="460" y="470" as="sourcePoint" />
            <mxPoint x="510" y="420" as="targetPoint" />
            <Array as="points">
              <mxPoint x="430" y="530" />
              <mxPoint x="570" y="460" />
            </Array>
          </mxGeometry>
        </mxCell>
        <mxCell id="a_HjmpshQ5I1XaltWmcj-62" value="" style="endArrow=none;startArrow=none;html=1;rounded=0;entryX=1;entryY=0.5;entryDx=0;entryDy=0;exitX=0;exitY=0.5;exitDx=0;exitDy=0;startFill=0;endFill=0;fillColor=#0050ef;strokeColor=#001DBC;strokeWidth=2;" parent="a_HjmpshQ5I1XaltWmcj-65" source="a_HjmpshQ5I1XaltWmcj-50" target="a_HjmpshQ5I1XaltWmcj-23" edge="1">
          <mxGeometry width="50" height="50" relative="1" as="geometry">
            <mxPoint x="850" y="610" as="sourcePoint" />
            <mxPoint x="810" y="610" as="targetPoint" />
          </mxGeometry>
        </mxCell>
        <mxCell id="a_HjmpshQ5I1XaltWmcj-24" value="" style="shape=switch;whiteSpace=wrap;html=1;" parent="a_HjmpshQ5I1XaltWmcj-65" vertex="1">
          <mxGeometry x="440" y="580" width="40" height="40" as="geometry" />
        </mxCell>
        <mxCell id="a_HjmpshQ5I1XaltWmcj-40" value="" style="shape=switch;whiteSpace=wrap;html=1;" parent="a_HjmpshQ5I1XaltWmcj-65" vertex="1">
          <mxGeometry x="700" y="580" width="40" height="40" as="geometry" />
        </mxCell>
        <mxCell id="a_HjmpshQ5I1XaltWmcj-21" value="" style="ellipse;whiteSpace=wrap;html=1;fillColor=#0050ef;fontColor=#ffffff;strokeColor=#001DBC;" parent="a_HjmpshQ5I1XaltWmcj-65" vertex="1">
          <mxGeometry x="330" y="590" width="20" height="20" as="geometry" />
        </mxCell>
        <mxCell id="a_HjmpshQ5I1XaltWmcj-48" value="" style="endArrow=none;startArrow=none;html=1;rounded=0;entryX=0;entryY=0.5;entryDx=0;entryDy=0;exitX=1;exitY=0.5;exitDx=0;exitDy=0;startFill=0;endFill=0;strokeWidth=2;fillColor=#0050ef;strokeColor=#001DBC;" parent="a_HjmpshQ5I1XaltWmcj-65" source="a_HjmpshQ5I1XaltWmcj-18" target="a_HjmpshQ5I1XaltWmcj-21" edge="1">
          <mxGeometry width="50" height="50" relative="1" as="geometry">
            <mxPoint x="240" y="577" as="sourcePoint" />
            <mxPoint x="280" y="577" as="targetPoint" />
          </mxGeometry>
        </mxCell>
        <mxCell id="a_HjmpshQ5I1XaltWmcj-19" value="" style="ellipse;whiteSpace=wrap;html=1;fillColor=#a20025;fontColor=#ffffff;strokeColor=#6F0000;" parent="a_HjmpshQ5I1XaltWmcj-65" vertex="1">
          <mxGeometry x="330" y="540" width="20" height="20" as="geometry" />
        </mxCell>
        <mxCell id="a_HjmpshQ5I1XaltWmcj-31" value="" style="endArrow=none;startArrow=none;html=1;rounded=0;entryX=0;entryY=1;entryDx=0;entryDy=0;exitX=1;exitY=0.5;exitDx=0;exitDy=0;startFill=0;endFill=0;strokeWidth=2;fillColor=#a20025;strokeColor=#6F0000;" parent="a_HjmpshQ5I1XaltWmcj-65" source="a_HjmpshQ5I1XaltWmcj-20" target="a_HjmpshQ5I1XaltWmcj-19" edge="1">
          <mxGeometry width="50" height="50" relative="1" as="geometry">
            <mxPoint x="240" y="577" as="sourcePoint" />
            <mxPoint x="280" y="577" as="targetPoint" />
          </mxGeometry>
        </mxCell>
        <mxCell id="a_HjmpshQ5I1XaltWmcj-20" value="" style="ellipse;whiteSpace=wrap;html=1;fillColor=#a20025;fontColor=#ffffff;strokeColor=#6F0000;" parent="a_HjmpshQ5I1XaltWmcj-65" vertex="1">
          <mxGeometry x="270" y="557" width="20" height="20" as="geometry" />
        </mxCell>
        <mxCell id="a_HjmpshQ5I1XaltWmcj-30" value="" style="endArrow=none;startArrow=none;html=1;rounded=0;entryX=0;entryY=0.5;entryDx=0;entryDy=0;exitX=1;exitY=0.5;exitDx=0;exitDy=0;startFill=0;endFill=0;strokeWidth=2;fillColor=#a20025;strokeColor=#6F0000;" parent="a_HjmpshQ5I1XaltWmcj-65" source="a_HjmpshQ5I1XaltWmcj-17" target="a_HjmpshQ5I1XaltWmcj-20" edge="1">
          <mxGeometry width="50" height="50" relative="1" as="geometry">
            <mxPoint x="190" y="630" as="sourcePoint" />
            <mxPoint x="240" y="580" as="targetPoint" />
          </mxGeometry>
        </mxCell>
        <mxCell id="a_HjmpshQ5I1XaltWmcj-55" value="" style="endArrow=none;startArrow=none;html=1;rounded=0;entryX=0.5;entryY=1;entryDx=0;entryDy=0;exitX=0.5;exitY=0;exitDx=0;exitDy=0;startFill=0;endFill=0;strokeWidth=2;fillColor=#a20025;strokeColor=#6F0000;" parent="a_HjmpshQ5I1XaltWmcj-65" source="a_HjmpshQ5I1XaltWmcj-19" target="a_HjmpshQ5I1XaltWmcj-2" edge="1">
          <mxGeometry width="50" height="50" relative="1" as="geometry">
            <mxPoint x="297" y="570" as="sourcePoint" />
            <mxPoint x="340" y="560" as="targetPoint" />
          </mxGeometry>
        </mxCell>
        <mxCell id="a_HjmpshQ5I1XaltWmcj-52" value="" style="ellipse;whiteSpace=wrap;html=1;fillColor=#a20025;fontColor=#ffffff;strokeColor=#6F0000;" parent="a_HjmpshQ5I1XaltWmcj-65" vertex="1">
          <mxGeometry x="840" y="537" width="20" height="20" as="geometry" />
        </mxCell>
        <mxCell id="a_HjmpshQ5I1XaltWmcj-51" value="" style="ellipse;whiteSpace=wrap;html=1;fillColor=#0050ef;fontColor=#ffffff;strokeColor=#001DBC;" parent="a_HjmpshQ5I1XaltWmcj-65" vertex="1">
          <mxGeometry x="840" y="590" width="20" height="20" as="geometry" />
        </mxCell>
        <mxCell id="a_HjmpshQ5I1XaltWmcj-60" value="" style="endArrow=none;startArrow=none;html=1;rounded=0;entryX=0;entryY=0.5;entryDx=0;entryDy=0;exitX=1;exitY=0.5;exitDx=0;exitDy=0;startFill=0;endFill=0;strokeWidth=2;fillColor=#0050ef;strokeColor=#001DBC;" parent="a_HjmpshQ5I1XaltWmcj-65" source="a_HjmpshQ5I1XaltWmcj-51" target="a_HjmpshQ5I1XaltWmcj-46" edge="1">
          <mxGeometry width="50" height="50" relative="1" as="geometry">
            <mxPoint x="930" y="577" as="sourcePoint" />
            <mxPoint x="960" y="577" as="targetPoint" />
          </mxGeometry>
        </mxCell>
        <mxCell id="a_HjmpshQ5I1XaltWmcj-58" value="" style="ellipse;whiteSpace=wrap;html=1;fillColor=#a20025;fontColor=#ffffff;strokeColor=#6F0000;" parent="a_HjmpshQ5I1XaltWmcj-65" vertex="1">
          <mxGeometry x="900" y="557" width="20" height="20" as="geometry" />
        </mxCell>
        <mxCell id="a_HjmpshQ5I1XaltWmcj-56" value="" style="endArrow=none;startArrow=none;html=1;rounded=0;entryX=0.5;entryY=1;entryDx=0;entryDy=0;exitX=0.5;exitY=0;exitDx=0;exitDy=0;startFill=0;endFill=0;strokeWidth=2;fillColor=#a20025;strokeColor=#6F0000;" parent="a_HjmpshQ5I1XaltWmcj-65" source="a_HjmpshQ5I1XaltWmcj-52" target="a_HjmpshQ5I1XaltWmcj-41" edge="1">
          <mxGeometry width="50" height="50" relative="1" as="geometry">
            <mxPoint x="350" y="550" as="sourcePoint" />
            <mxPoint x="350" y="520" as="targetPoint" />
          </mxGeometry>
        </mxCell>
        <mxCell id="a_HjmpshQ5I1XaltWmcj-59" value="" style="endArrow=none;startArrow=none;html=1;rounded=0;entryX=0;entryY=0.5;entryDx=0;entryDy=0;exitX=1;exitY=0.5;exitDx=0;exitDy=0;startFill=0;endFill=0;strokeWidth=2;fillColor=#a20025;strokeColor=#6F0000;" parent="a_HjmpshQ5I1XaltWmcj-65" source="a_HjmpshQ5I1XaltWmcj-58" target="a_HjmpshQ5I1XaltWmcj-44" edge="1">
          <mxGeometry width="50" height="50" relative="1" as="geometry">
            <mxPoint x="860" y="547" as="sourcePoint" />
            <mxPoint x="860" y="520" as="targetPoint" />
          </mxGeometry>
        </mxCell>
        <mxCell id="a_HjmpshQ5I1XaltWmcj-49" value="" style="ellipse;whiteSpace=wrap;html=1;fillColor=#60a917;fontColor=#ffffff;strokeColor=#2D7600;" parent="a_HjmpshQ5I1XaltWmcj-65" vertex="1">
          <mxGeometry x="780" y="540" width="20" height="20" as="geometry" />
        </mxCell>
        <mxCell id="a_HjmpshQ5I1XaltWmcj-50" value="" style="ellipse;whiteSpace=wrap;html=1;fillColor=#60a917;fontColor=#ffffff;strokeColor=#2D7600;" parent="a_HjmpshQ5I1XaltWmcj-65" vertex="1">
          <mxGeometry x="780" y="590" width="20" height="20" as="geometry" />
        </mxCell>
        <mxCell id="a_HjmpshQ5I1XaltWmcj-23" value="" style="ellipse;whiteSpace=wrap;html=1;fillColor=#60a917;fontColor=#ffffff;strokeColor=#2D7600;" parent="a_HjmpshQ5I1XaltWmcj-65" vertex="1">
          <mxGeometry x="390" y="590" width="20" height="20" as="geometry" />
        </mxCell>
        <mxCell id="a_HjmpshQ5I1XaltWmcj-26" value="" style="ellipse;whiteSpace=wrap;html=1;fillColor=#60a917;fontColor=#ffffff;strokeColor=#2D7600;" parent="a_HjmpshQ5I1XaltWmcj-65" vertex="1">
          <mxGeometry x="390" y="540" width="20" height="20" as="geometry" />
        </mxCell>
        <mxCell id="o2nPI85ZSGAs_6RoOBJv-29" value="(1) HostGame" style="shape=document;whiteSpace=wrap;html=1;boundedLbl=1;fontFamily=Helvetica;fontSize=14;fontColor=default;sketch=1;curveFitting=1;jiggle=2;" parent="a_HjmpshQ5I1XaltWmcj-65" vertex="1">
          <mxGeometry x="290" y="270" width="120" height="80" as="geometry" />
        </mxCell>
        <mxCell id="o2nPI85ZSGAs_6RoOBJv-30" value="(2) JoinGame @&amp;nbsp;&lt;br&gt;&amp;nbsp; &amp;nbsp;" style="shape=document;whiteSpace=wrap;html=1;boundedLbl=1;fontFamily=Helvetica;fontSize=14;fontColor=default;sketch=1;curveFitting=1;jiggle=2;" parent="a_HjmpshQ5I1XaltWmcj-65" vertex="1">
          <mxGeometry x="790" y="270" width="120" height="80" as="geometry" />
        </mxCell>
        <mxCell id="o2nPI85ZSGAs_6RoOBJv-32" value="" style="endArrow=none;startArrow=none;html=1;rounded=0;entryX=0;entryY=0.5;entryDx=0;entryDy=0;exitX=1;exitY=1;exitDx=0;exitDy=0;startFill=0;endFill=0;strokeWidth=2;fillColor=#a20025;strokeColor=#6F0000;" parent="a_HjmpshQ5I1XaltWmcj-65" source="a_HjmpshQ5I1XaltWmcj-52" target="a_HjmpshQ5I1XaltWmcj-58" edge="1">
          <mxGeometry width="50" height="50" relative="1" as="geometry">
            <mxPoint x="860" y="547" as="sourcePoint" />
            <mxPoint x="860" y="520" as="targetPoint" />
          </mxGeometry>
        </mxCell>
        <mxCell id="o2nPI85ZSGAs_6RoOBJv-33" value="" style="endArrow=none;startArrow=none;html=1;rounded=0;entryX=0;entryY=0.5;entryDx=0;entryDy=0;startFill=0;endFill=0;strokeWidth=2;fillColor=#0050ef;strokeColor=#001DBC;" parent="a_HjmpshQ5I1XaltWmcj-65" target="a_HjmpshQ5I1XaltWmcj-23" edge="1">
          <mxGeometry width="50" height="50" relative="1" as="geometry">
            <mxPoint x="350" y="600" as="sourcePoint" />
            <mxPoint x="340" y="610" as="targetPoint" />
          </mxGeometry>
        </mxCell>
        <mxCell id="o2nPI85ZSGAs_6RoOBJv-34" value="" style="endArrow=none;startArrow=none;html=1;rounded=0;entryX=0;entryY=0.5;entryDx=0;entryDy=0;startFill=0;endFill=0;strokeWidth=2;fillColor=#0050ef;strokeColor=#001DBC;" parent="a_HjmpshQ5I1XaltWmcj-65" target="a_HjmpshQ5I1XaltWmcj-51" edge="1">
          <mxGeometry width="50" height="50" relative="1" as="geometry">
            <mxPoint x="800" y="600" as="sourcePoint" />
            <mxPoint x="400" y="610" as="targetPoint" />
          </mxGeometry>
        </mxCell>
        <mxCell id="o2nPI85ZSGAs_6RoOBJv-55" value="Network self diagnosis&amp;nbsp;(STUN)&lt;br&gt;Holepunching or Relay (TURN)" style="text;html=1;strokeColor=none;fillColor=none;align=center;verticalAlign=middle;whiteSpace=wrap;rounded=0;fontSize=11;fontFamily=Helvetica;fontColor=#60a916;rotation=-90;" parent="a_HjmpshQ5I1XaltWmcj-65" vertex="1">
          <mxGeometry x="459.25" y="350" width="261.5" height="30" as="geometry" />
        </mxCell>
        <mxCell id="o2nPI85ZSGAs_6RoOBJv-56" value="ICE 8123" style="text;html=1;strokeColor=none;fillColor=none;align=left;verticalAlign=middle;whiteSpace=wrap;rounded=0;fontSize=11;fontFamily=Helvetica;fontColor=#60a916;" parent="a_HjmpshQ5I1XaltWmcj-65" vertex="1">
          <mxGeometry x="374" y="610" width="66" height="20" as="geometry" />
        </mxCell>
        <mxCell id="o2nPI85ZSGAs_6RoOBJv-57" value="ICE 8456" style="text;html=1;strokeColor=none;fillColor=none;align=left;verticalAlign=middle;whiteSpace=wrap;rounded=0;fontSize=11;fontFamily=Helvetica;fontColor=#60a916;" parent="a_HjmpshQ5I1XaltWmcj-65" vertex="1">
          <mxGeometry x="760" y="610" width="66" height="20" as="geometry" />
        </mxCell>
        <mxCell id="o2nPI85ZSGAs_6RoOBJv-58" value="127.0.0.1:21456" style="text;html=1;align=center;verticalAlign=middle;whiteSpace=wrap;rounded=0;fontSize=14;fontFamily=Helvetica;fillColor=#FFFFFF;fontColor=#0250ef;strokeColor=none;spacing=0;" parent="a_HjmpshQ5I1XaltWmcj-65" vertex="1">
          <mxGeometry x="798" y="297" width="102" height="20" as="geometry" />
        </mxCell>
        <mxCell id="o2nPI85ZSGAs_6RoOBJv-59" value="The &lt;b&gt;local&lt;/b&gt;&lt;br&gt;UDP proxy port!" style="text;html=1;strokeColor=none;fillColor=none;align=center;verticalAlign=middle;whiteSpace=wrap;rounded=0;fontSize=11;fontFamily=Helvetica;fontColor=default;fontStyle=2" parent="a_HjmpshQ5I1XaltWmcj-65" vertex="1">
          <mxGeometry x="910" y="292" width="60" height="30" as="geometry" />
        </mxCell>
        <mxCell id="mOR5eO6rDDxthUpguj_8-1" value="UDP 21456" style="text;html=1;strokeColor=none;fillColor=none;align=center;verticalAlign=middle;whiteSpace=wrap;rounded=0;fontSize=11;fontFamily=Helvetica;fontColor=#0250ef;" vertex="1" parent="a_HjmpshQ5I1XaltWmcj-65">
          <mxGeometry x="820" y="605" width="60" height="30" as="geometry" />
        </mxCell>
        <mxCell id="o2nPI85ZSGAs_6RoOBJv-64" value="Holepunching with ICE" style="locked=1;" parent="0" visible="0" />
        <mxCell id="o2nPI85ZSGAs_6RoOBJv-65" value="&lt;h1&gt;Holepunching with ICE&lt;/h1&gt;&lt;div&gt;ICE (= Internet Connectivity Establishment,&amp;nbsp;&lt;/div&gt;RFC 8445&lt;span style=&quot;background-color: initial;&quot;&gt;) enables passing through firewalls using several protocols. It also allows relaying traffic through a 3rd party service (here: Coturn) as last resort.&lt;br&gt;&lt;br&gt;This requires an additional component (ICE adapter) to find a way to open ports and establish a connection. Matching connection ways are then published by the lobby server.&amp;nbsp;&lt;br&gt;&lt;/span&gt;&lt;br&gt;As the external traffic now flows via any protocol (instead of just UDP), the ICE adapter also acts as a proxy between the game and the external ICE socket&amp;nbsp;for all game data." style="text;html=1;strokeColor=none;fillColor=none;spacing=5;spacingTop=-20;whiteSpace=wrap;overflow=hidden;rounded=0;fontSize=11;fontFamily=Helvetica;fontColor=default;" parent="o2nPI85ZSGAs_6RoOBJv-64" vertex="1">
          <mxGeometry x="80" y="50" width="230" height="300" as="geometry" />
        </mxCell>
        <mxCell id="o2nPI85ZSGAs_6RoOBJv-66" value="Developer overview" parent="0" />
        <mxCell id="o2nPI85ZSGAs_6RoOBJv-76" value="" style="rounded=1;whiteSpace=wrap;html=1;fontFamily=Helvetica;fontSize=11;fontColor=default;fillColor=none;strokeColor=#FF8000;strokeWidth=6;dashed=1;perimeterSpacing=0;" parent="o2nPI85ZSGAs_6RoOBJv-66" vertex="1">
          <mxGeometry x="50" y="400" width="520" height="310" as="geometry" />
        </mxCell>
        <mxCell id="o2nPI85ZSGAs_6RoOBJv-70" value="" style="rounded=1;whiteSpace=wrap;html=1;fontFamily=Helvetica;fontSize=11;fontColor=default;fillColor=none;strokeColor=#FF8000;strokeWidth=3;" parent="o2nPI85ZSGAs_6RoOBJv-66" vertex="1">
          <mxGeometry x="200" y="540" width="100" height="40" as="geometry" />
        </mxCell>
        <mxCell id="o2nPI85ZSGAs_6RoOBJv-72" value="" style="rounded=1;whiteSpace=wrap;html=1;fontFamily=Helvetica;fontSize=11;fontColor=default;fillColor=none;strokeColor=#FF8000;strokeWidth=3;" parent="o2nPI85ZSGAs_6RoOBJv-66" vertex="1">
          <mxGeometry x="190" y="580" width="140" height="46" as="geometry" />
        </mxCell>
        <mxCell id="o2nPI85ZSGAs_6RoOBJv-74" value="" style="rounded=1;whiteSpace=wrap;html=1;fontFamily=Helvetica;fontSize=11;fontColor=default;fillColor=none;strokeColor=#FF8000;strokeWidth=3;" parent="o2nPI85ZSGAs_6RoOBJv-66" vertex="1">
          <mxGeometry x="320" y="494" width="40" height="76" as="geometry" />
        </mxCell>
        <mxCell id="o2nPI85ZSGAs_6RoOBJv-75" value="" style="rounded=1;whiteSpace=wrap;html=1;fontFamily=Helvetica;fontSize=11;fontColor=default;fillColor=none;strokeColor=#FF8000;strokeWidth=3;" parent="o2nPI85ZSGAs_6RoOBJv-66" vertex="1">
          <mxGeometry x="330" y="580" width="100" height="50" as="geometry" />
        </mxCell>
        <mxCell id="o2nPI85ZSGAs_6RoOBJv-77" value="1" style="ellipse;whiteSpace=wrap;html=1;fontFamily=Helvetica;fontSize=14;fontColor=#FFFFFF;strokeWidth=2;fillColor=#f0a30a;strokeColor=#BD7000;fontStyle=1;" parent="o2nPI85ZSGAs_6RoOBJv-66" vertex="1">
          <mxGeometry x="240" y="517" width="40" height="30" as="geometry" />
        </mxCell>
        <mxCell id="o2nPI85ZSGAs_6RoOBJv-78" value="2" style="ellipse;whiteSpace=wrap;html=1;fontFamily=Helvetica;fontSize=14;fontColor=#FFFFFF;strokeWidth=2;fillColor=#f0a30a;strokeColor=#BD7000;fontStyle=1;" parent="o2nPI85ZSGAs_6RoOBJv-66" vertex="1">
          <mxGeometry x="250" y="610" width="40" height="30" as="geometry" />
        </mxCell>
        <mxCell id="o2nPI85ZSGAs_6RoOBJv-79" value="3" style="ellipse;whiteSpace=wrap;html=1;fontFamily=Helvetica;fontSize=14;fontColor=#FFFFFF;strokeWidth=2;fillColor=#f0a30a;strokeColor=#BD7000;fontStyle=1;" parent="o2nPI85ZSGAs_6RoOBJv-66" vertex="1">
          <mxGeometry x="340" y="487" width="40" height="30" as="geometry" />
        </mxCell>
        <mxCell id="o2nPI85ZSGAs_6RoOBJv-80" value="4" style="ellipse;whiteSpace=wrap;html=1;fontFamily=Helvetica;fontSize=14;fontColor=#FFFFFF;strokeWidth=2;fillColor=#f0a30a;strokeColor=#BD7000;fontStyle=1;" parent="o2nPI85ZSGAs_6RoOBJv-66" vertex="1">
          <mxGeometry x="330" y="620" width="40" height="30" as="geometry" />
        </mxCell>
        <mxCell id="o2nPI85ZSGAs_6RoOBJv-81" value="5" style="ellipse;whiteSpace=wrap;html=1;fontFamily=Helvetica;fontSize=14;fontColor=#FFFFFF;strokeWidth=2;fillColor=#f0a30a;strokeColor=#BD7000;fontStyle=1;" parent="o2nPI85ZSGAs_6RoOBJv-66" vertex="1">
          <mxGeometry x="490" y="620" width="40" height="30" as="geometry" />
        </mxCell>
        <mxCell id="o2nPI85ZSGAs_6RoOBJv-82" value="&lt;h1&gt;&lt;span style=&quot;background-color: initial;&quot;&gt;Components (Developer view)&lt;/span&gt;&lt;/h1&gt;&lt;h1&gt;&lt;span style=&quot;background-color: initial;&quot;&gt;&lt;span style=&quot;font-size: 11px; font-weight: 400;&quot;&gt;(1) GpgNetProxy (1 per game)&lt;br&gt;(2) LobbyConnectionProxy (1 per game)&lt;/span&gt;&lt;/span&gt;&lt;/h1&gt;&lt;div&gt;&lt;span style=&quot;background-color: initial;&quot;&gt;&lt;span style=&quot;font-size: 11px; font-weight: 400;&quot;&gt;(3) ControlPlane (1 per game)&lt;/span&gt;&lt;/span&gt;&lt;/div&gt;&lt;div&gt;&lt;span style=&quot;background-color: initial;&quot;&gt;&lt;span style=&quot;font-size: 11px; font-weight: 400;&quot;&gt;&lt;br&gt;&lt;/span&gt;&lt;/span&gt;&lt;/div&gt;&lt;div&gt;&lt;span style=&quot;background-color: initial;&quot;&gt;&lt;span style=&quot;font-size: 11px; font-weight: 400;&quot;&gt;(4) UdpSocketBridge (1 per connected peer)&lt;/span&gt;&lt;/span&gt;&lt;/div&gt;&lt;div&gt;&lt;span style=&quot;background-color: initial;&quot;&gt;&lt;span style=&quot;font-size: 11px; font-weight: 400;&quot;&gt;&lt;br&gt;&lt;/span&gt;&lt;/span&gt;&lt;/div&gt;&lt;div&gt;&lt;span style=&quot;background-color: initial;&quot;&gt;&lt;span style=&quot;font-size: 11px; font-weight: 400;&quot;&gt;(5) AgentWrapper (1 per connected peer)&lt;/span&gt;&lt;/span&gt;&lt;/div&gt;&lt;div&gt;&lt;span style=&quot;background-color: initial;&quot;&gt;&lt;span style=&quot;font-size: 11px; font-weight: 400;&quot;&gt;&lt;br&gt;&lt;/span&gt;&lt;/span&gt;&lt;/div&gt;&lt;div&gt;&lt;span style=&quot;background-color: initial;&quot;&gt;&lt;span style=&quot;font-size: 11px; font-weight: 400;&quot;&gt;(6) RemotePeerOrchestrator (1 per game)&lt;/span&gt;&lt;/span&gt;&lt;/div&gt;&lt;h1&gt;&lt;/h1&gt;" style="text;html=1;strokeColor=none;fillColor=none;spacing=5;spacingTop=-20;whiteSpace=wrap;overflow=hidden;rounded=0;fontSize=11;fontFamily=Helvetica;fontColor=default;" parent="o2nPI85ZSGAs_6RoOBJv-66" vertex="1">
          <mxGeometry x="80" y="50" width="230" height="300" as="geometry" />
        </mxCell>
        <mxCell id="o2nPI85ZSGAs_6RoOBJv-83" value="" style="rounded=1;whiteSpace=wrap;html=1;fontFamily=Helvetica;fontSize=11;fontColor=default;fillColor=none;strokeColor=#FF8000;strokeWidth=6;dashed=1;perimeterSpacing=0;dashPattern=1 1;" parent="o2nPI85ZSGAs_6RoOBJv-66" vertex="1">
          <mxGeometry x="390" y="540" width="130" height="110" as="geometry" />
        </mxCell>
        <mxCell id="o2nPI85ZSGAs_6RoOBJv-86" value="6" style="ellipse;whiteSpace=wrap;html=1;fontFamily=Helvetica;fontSize=14;fontColor=#FFFFFF;strokeWidth=2;fillColor=#f0a30a;strokeColor=#BD7000;fontStyle=1;" parent="o2nPI85ZSGAs_6RoOBJv-66" vertex="1">
          <mxGeometry x="500" y="690" width="40" height="30" as="geometry" />
        </mxCell>
      </root>
    </mxGraphModel>
  </diagram>
</mxfile>
